<svg width="19" height="18" viewBox="0 0 19 18" fill="none" xmlns="http://www.w3.org/2000/svg">
<path d="M9.68744 0.067482C4.72673 0.067482 0.704102 4.15795 0.704102 9.20419C0.704102 13.2411 3.2781 16.666 6.84746 17.8741C7.29641 17.9587 7.46124 17.6759 7.46124 17.4346C7.46124 17.2167 7.45291 16.497 7.44904 15.7335C4.94987 16.2862 4.42251 14.6555 4.42251 14.6555C4.01387 13.5994 3.42508 13.3186 3.42508 13.3186C2.61002 12.7515 3.48651 12.7631 3.48651 12.7631C4.3886 12.8274 4.86359 13.7047 4.86359 13.7047C5.66481 15.1015 6.96513 14.6977 7.47775 14.4642C7.55838 13.8738 7.79119 13.4705 8.0481 13.2425C6.05278 13.0114 3.95526 12.228 3.95526 8.72698C3.95526 7.72944 4.30618 6.91438 4.88085 6.27452C4.78757 6.04423 4.48008 5.11509 4.96787 3.85655C4.96787 3.85655 5.72223 3.61099 7.43893 4.79311C8.15551 4.59067 8.924 4.48915 9.68744 4.48567C10.4509 4.48915 11.22 4.59067 11.9379 4.79311C13.6525 3.61099 14.4058 3.85655 14.4058 3.85655C14.8948 5.11509 14.5872 6.04423 14.4939 6.27452C15.0699 6.91438 15.4184 7.72944 15.4184 8.72698C15.4184 12.2363 13.3169 13.009 11.3165 13.2352C11.6387 13.5187 11.9258 14.0748 11.9258 14.9272C11.9258 16.1496 11.9154 17.1335 11.9154 17.4346C11.9154 17.6777 12.0771 17.9626 12.5325 17.8729C16.0999 16.6634 18.6706 13.2397 18.6706 9.20419C18.6706 4.15795 14.6486 0.067482 9.68744 0.067482Z" fill="black"/>
<path d="M4.10655 13.1859C4.08677 13.2314 4.01655 13.2449 3.95259 13.2137C3.88743 13.1839 3.85083 13.122 3.87196 13.0765C3.8913 13.0297 3.96166 13.0169 4.02667 13.0479C4.09197 13.0778 4.12916 13.1403 4.10655 13.1859Z" fill="black"/>
<path d="M4.47032 13.5986C4.42747 13.639 4.34372 13.6203 4.28689 13.5564C4.22813 13.4927 4.21713 13.4075 4.26056 13.3665C4.30475 13.3261 4.38597 13.345 4.44488 13.4087C4.50364 13.4732 4.51509 13.5578 4.47032 13.5986Z" fill="black"/>
<path d="M4.82457 14.1249C4.76953 14.1637 4.67953 14.1273 4.6239 14.046C4.56886 13.9648 4.56886 13.8673 4.62509 13.8283C4.68087 13.7893 4.76953 13.8244 4.82591 13.905C4.88081 13.9875 4.88081 14.0851 4.82457 14.1249Z" fill="black"/>
<path d="M5.30993 14.6332C5.26069 14.6885 5.15581 14.6736 5.07905 14.5983C5.0005 14.5246 4.97864 14.42 5.02802 14.3648C5.07786 14.3094 5.18333 14.325 5.26069 14.3998C5.33864 14.4733 5.36244 14.5786 5.30993 14.6332Z" fill="black"/>
<path d="M5.97929 14.9284C5.95757 15 5.85656 15.0325 5.75481 15.0021C5.6532 14.9708 5.58671 14.887 5.60724 14.8146C5.62836 14.7426 5.72982 14.7087 5.83231 14.7413C5.93377 14.7724 6.00041 14.8556 5.97929 14.9284Z" fill="black"/>
<path d="M6.7144 14.9832C6.71693 15.0585 6.63065 15.121 6.52384 15.1222C6.41644 15.1248 6.32956 15.0638 6.32837 14.9897C6.32837 14.9136 6.41272 14.8517 6.52012 14.8499C6.62693 14.8478 6.7144 14.9083 6.7144 14.9832Z" fill="black"/>
<path d="M7.39864 14.8647C7.41143 14.9382 7.3372 15.0137 7.23113 15.0337C7.12685 15.0532 7.03031 15.0078 7.01707 14.9349C7.00413 14.8596 7.0797 14.7841 7.18383 14.7646C7.29004 14.7458 7.3851 14.79 7.39864 14.8647Z" fill="black"/>
</svg>
