<svg width="19" height="18" viewBox="0 0 19 18" fill="none" xmlns="http://www.w3.org/2000/svg">
<g clip-path="url(#clip0)">
<path d="M18.6711 9C18.6711 4.02891 14.6422 0 9.67114 0C4.70005 0 0.671143 4.02891 0.671143 9C0.671143 13.493 3.96177 17.216 8.26489 17.891V11.6016H5.97974V9H8.26489V7.01719C8.26489 4.76191 9.60786 3.51562 11.6645 3.51562C12.6489 3.51562 13.679 3.69141 13.679 3.69141V5.90625H12.5434C11.4254 5.90625 11.0774 6.60059 11.0774 7.3125V9H13.5735L13.1745 11.6016H11.0774V17.891C15.3805 17.216 18.6711 13.493 18.6711 9Z" fill="black"/>
</g>
<defs>
<clipPath id="clip0">
<rect x="0.671143" width="18" height="18" fill="white"/>
</clipPath>
</defs>
</svg>
