<svg width="19" height="18" viewBox="0 0 19 18" fill="none" xmlns="http://www.w3.org/2000/svg">
<path fill-rule="evenodd" clip-rule="evenodd" d="M9.67114 0C4.70058 0 0.671143 4.02944 0.671143 9C0.671143 13.9706 4.70058 18 9.67114 18C14.6417 18 18.6711 13.9706 18.6711 9C18.6711 4.02944 14.6417 0 9.67114 0ZM4.99176 7.45419H7.03135V13.5823H4.99176V7.45419ZM7.16571 5.55851C7.15247 4.95765 6.72279 4.5 6.02506 4.5C5.32733 4.5 4.87117 4.95765 4.87117 5.55851C4.87117 6.14693 5.31384 6.61776 5.99858 6.61776H6.01162C6.72279 6.61776 7.16571 6.14693 7.16571 5.55851ZM12.0386 7.3103C13.3807 7.3103 14.3869 8.18635 14.3869 10.0686L14.3869 13.5823H12.3473V10.3038C12.3473 9.48027 12.0522 8.91834 11.3139 8.91834C10.7504 8.91834 10.4147 9.29716 10.2673 9.66306C10.2134 9.79419 10.2002 9.97689 10.2002 10.16V13.5825H8.16032C8.16032 13.5825 8.18721 8.02939 8.16032 7.45436H10.2002V8.32236C10.4709 7.9051 10.9557 7.3103 12.0386 7.3103Z" fill="black"/>
</svg>
