<svg width="18" height="18" viewBox="0 0 18 18" fill="none" xmlns="http://www.w3.org/2000/svg">
<mask id="path-1-inside-1" fill="white">
<path fill-rule="evenodd" clip-rule="evenodd" d="M10.8571 6.42857C10.8571 8.8744 8.8744 10.8571 6.42857 10.8571C3.98274 10.8571 2 8.8744 2 6.42857C2 3.98274 3.98274 2 6.42857 2C8.8744 2 10.8571 3.98274 10.8571 6.42857ZM11.703 10.1048C12.4305 9.06296 12.8571 7.7956 12.8571 6.42857C12.8571 2.87817 9.97897 0 6.42857 0C2.87817 0 0 2.87817 0 6.42857C0 9.97897 2.87817 12.8571 6.42857 12.8571C7.68181 12.8571 8.8513 12.4985 9.84 11.8783L13.9731 16.0114L15.3873 17.4256L15.7913 17.0215L16.8015 16.0114L17.2055 15.6073L15.7913 14.1931L12.0228 10.4245L11.703 10.1048Z"/>
</mask>
<path d="M11.703 10.1048L10.0632 8.95971L9.10366 10.3339L10.2888 11.519L11.703 10.1048ZM9.84 11.8783L11.2542 10.4641L10.1273 9.33716L8.7772 10.1841L9.84 11.8783ZM13.9731 16.0114L12.5588 17.4256H12.5588L13.9731 16.0114ZM15.3873 17.4256L13.9731 18.8398L15.3873 20.254L16.8015 18.8398L15.3873 17.4256ZM15.7913 17.0215L14.3771 15.6073V15.6073L15.7913 17.0215ZM16.8015 16.0114L18.2157 17.4256L18.2157 17.4256L16.8015 16.0114ZM17.2055 15.6073L18.6198 17.0215L20.034 15.6073L18.6198 14.1931L17.2055 15.6073ZM15.7913 14.1931L14.3771 15.6073H14.3771L15.7913 14.1931ZM12.0228 10.4245L13.437 9.01032H13.437L12.0228 10.4245ZM6.42857 12.8571C9.97897 12.8571 12.8571 9.97897 12.8571 6.42857H8.85714C8.85714 7.76983 7.76983 8.85714 6.42857 8.85714V12.8571ZM0 6.42857C0 9.97897 2.87817 12.8571 6.42857 12.8571V8.85714C5.08731 8.85714 4 7.76983 4 6.42857H0ZM6.42857 0C2.87817 0 0 2.87817 0 6.42857H4C4 5.08731 5.08731 4 6.42857 4V0ZM12.8571 6.42857C12.8571 2.87817 9.97897 0 6.42857 0V4C7.76983 4 8.85714 5.08731 8.85714 6.42857H12.8571ZM10.8571 6.42857C10.8571 7.37295 10.5638 8.24283 10.0632 8.95971L13.3428 11.2498C14.2971 9.8831 14.8571 8.21824 14.8571 6.42857H10.8571ZM6.42857 2C8.8744 2 10.8571 3.98274 10.8571 6.42857H14.8571C14.8571 1.7736 11.0835 -2 6.42857 -2V2ZM2 6.42857C2 3.98274 3.98274 2 6.42857 2V-2C1.7736 -2 -2 1.7736 -2 6.42857H2ZM6.42857 10.8571C3.98274 10.8571 2 8.8744 2 6.42857H-2C-2 11.0835 1.7736 14.8571 6.42857 14.8571V10.8571ZM8.7772 10.1841C8.09766 10.6103 7.295 10.8571 6.42857 10.8571V14.8571C8.06863 14.8571 9.60493 14.3867 10.9028 13.5726L8.7772 10.1841ZM8.42579 13.2925L12.5588 17.4256L15.3873 14.5972L11.2542 10.4641L8.42579 13.2925ZM12.5588 17.4256L13.9731 18.8398L16.8015 16.0114L15.3873 14.5972L12.5588 17.4256ZM16.8015 18.8398L17.2055 18.4357L14.3771 15.6073L13.9731 16.0114L16.8015 18.8398ZM17.2055 18.4357L18.2157 17.4256L15.3873 14.5972L14.3771 15.6073L17.2055 18.4357ZM18.2157 17.4256L18.6198 17.0215L15.7913 14.1931L15.3873 14.5972L18.2157 17.4256ZM18.6198 14.1931L17.2055 12.7789L14.3771 15.6073L15.7913 17.0215L18.6198 14.1931ZM17.2055 12.7789L13.437 9.01032L10.6086 11.8387L14.3771 15.6073L17.2055 12.7789ZM13.437 9.01032L13.1172 8.69054L10.2888 11.519L10.6086 11.8387L13.437 9.01032Z" fill="#8C8C8C" mask="url(#path-1-inside-1)"/>
</svg>
