<svg width="20" height="20" viewBox="0 0 20 20" fill="none" xmlns="http://www.w3.org/2000/svg">
<g clip-path="url(#clip0)">
<path d="M10.0001 4.45129C6.93562 4.45129 4.45142 6.9355 4.45142 10C4.45142 13.0645 6.93562 15.5487 10.0001 15.5487C13.0646 15.5487 15.5488 13.0645 15.5488 10C15.5453 6.937 13.0631 4.45478 10.0001 4.45129V4.45129ZM10.0001 14.6976C7.4057 14.6976 5.30248 12.5944 5.30248 10C5.30248 7.40558 7.4057 5.30236 10.0001 5.30236C12.5945 5.30236 14.6978 7.40558 14.6978 10C14.6948 12.5932 12.5934 14.6946 10.0001 14.6976V14.6976Z" fill="black"/>
<path d="M10.4255 2.59574V0.425532C10.4255 0.190492 10.235 0 9.99999 0C9.76495 0 9.57446 0.190492 9.57446 0.425532V2.59574C9.57446 2.83078 9.76495 3.02128 9.99999 3.02128C10.235 3.02128 10.4255 2.83078 10.4255 2.59574Z" fill="black"/>
<path d="M9.99999 16.9787C9.76495 16.9787 9.57446 17.1692 9.57446 17.4042V19.5744C9.57446 19.8095 9.76495 20 9.99999 20C10.235 20 10.4255 19.8095 10.4255 19.5744V17.4042C10.4255 17.1692 10.235 16.9787 9.99999 16.9787Z" fill="black"/>
<path d="M19.5745 9.57446H17.4043C17.1693 9.57446 16.9788 9.76496 16.9788 10C16.9788 10.235 17.1693 10.4255 17.4043 10.4255H19.5745C19.8095 10.4255 20 10.235 20 10C20 9.76496 19.8095 9.57446 19.5745 9.57446Z" fill="black"/>
<path d="M3.02128 10C3.02128 9.76496 2.83078 9.57446 2.59574 9.57446H0.425532C0.190492 9.57446 0 9.76496 0 10C0 10.235 0.190492 10.4255 0.425532 10.4255H2.59574C2.83078 10.4255 3.02128 10.235 3.02128 10Z" fill="black"/>
<path d="M15.5427 5.05884L17.0522 3.54936C17.2172 3.38297 17.2166 3.11452 17.0508 2.94896C16.8853 2.78323 16.6168 2.78257 16.4504 2.94763L14.941 4.45711C14.8328 4.56432 14.79 4.7214 14.8293 4.86885C14.8687 5.01612 14.9837 5.13115 15.131 5.17054C15.2784 5.20977 15.4355 5.16705 15.5427 5.05884V5.05884Z" fill="black"/>
<path d="M4.45705 14.9411L2.94758 16.4506C2.8392 16.558 2.79665 16.7151 2.83587 16.8624C2.8751 17.0096 2.9903 17.1248 3.13757 17.1641C3.28484 17.2033 3.44192 17.1607 3.5493 17.0523L5.05878 15.5429C5.16699 15.4357 5.20971 15.2786 5.17048 15.1311C5.13109 14.9839 5.01606 14.8688 4.86878 14.8294C4.72134 14.7902 4.56426 14.8329 4.45705 14.9411V14.9411Z" fill="black"/>
<path d="M15.5427 14.9411C15.4355 14.8329 15.2784 14.7902 15.131 14.8294C14.9837 14.8688 14.8687 14.9839 14.8293 15.1311C14.79 15.2786 14.8328 15.4357 14.941 15.5429L16.4504 17.0523C16.6168 17.2174 16.8853 17.2167 17.0508 17.051C17.2166 16.8855 17.2172 16.617 17.0522 16.4506L15.5427 14.9411Z" fill="black"/>
<path d="M4.45707 5.05884C4.56428 5.16705 4.72136 5.20977 4.8688 5.17054C5.01608 5.13115 5.1311 5.01612 5.1705 4.86885C5.20973 4.7214 5.16701 4.56432 5.0588 4.45711L3.54933 2.94763C3.38294 2.78257 3.11449 2.78323 2.94893 2.94896C2.7832 3.11452 2.78254 3.38297 2.9476 3.54936L4.45707 5.05884Z" fill="black"/>
</g>
<defs>
<clipPath id="clip0">
<rect width="20" height="20" fill="white"/>
</clipPath>
</defs>
</svg>
