<svg width="20" height="20" viewBox="0 0 20 20" fill="none" xmlns="http://www.w3.org/2000/svg">
<path d="M18.5352 0.722656H1.46484C0.657109 0.722656 0 1.37977 0 2.1875V15.0781C0 15.8859 0.657109 16.543 1.46484 16.543H7.71707L7.36445 17.7771C7.22285 18.2727 6.66777 18.6914 6.15234 18.6914H3.94531C3.78352 18.6914 3.65234 18.8225 3.65234 18.9844C3.65234 19.1462 3.78352 19.2773 3.94531 19.2773H16.0547C16.2165 19.2773 16.3477 19.1462 16.3477 18.9844C16.3477 18.8225 16.2165 18.6914 16.0547 18.6914H13.8477C13.3322 18.6914 12.7771 18.2727 12.6355 17.7771L12.2829 16.543H18.5352C19.3429 16.543 20 15.8859 20 15.0781V2.1875C20 1.37977 19.3429 0.722656 18.5352 0.722656ZM1.46484 1.30859H18.5352C19.0198 1.30859 19.4141 1.70289 19.4141 2.1875V12.4414H0.585938V2.1875C0.585938 1.70289 0.980195 1.30859 1.46484 1.30859ZM12.0721 17.9381C12.1525 18.2195 12.3123 18.4781 12.5218 18.6914H7.47816C7.68766 18.4781 7.84746 18.2195 7.92785 17.9381L8.32645 16.543H11.6735L12.0721 17.9381ZM18.5352 15.957H1.46484C0.980195 15.957 0.585938 15.5627 0.585938 15.0781V13.0273H19.4141V15.0781C19.4141 15.5627 19.0198 15.957 18.5352 15.957Z" fill="black"/>
<path d="M1.46484 11.8555H18.5352C18.697 11.8555 18.8281 11.7243 18.8281 11.5625V2.1875C18.8281 2.02566 18.697 1.89453 18.5352 1.89453H1.46484C1.30305 1.89453 1.17188 2.02566 1.17188 2.1875V6.28906C1.17188 6.4509 1.30305 6.58203 1.46484 6.58203C1.62664 6.58203 1.75781 6.4509 1.75781 6.28906V2.48047H18.2422V11.2695H1.75781V7.46094C1.75781 7.2991 1.62664 7.16797 1.46484 7.16797C1.30305 7.16797 1.17188 7.2991 1.17188 7.46094V11.5625C1.17188 11.7243 1.30305 11.8555 1.46484 11.8555Z" fill="black"/>
<path d="M10 13.6133C9.51535 13.6133 9.12109 14.0076 9.12109 14.4922C9.12109 14.9768 9.51535 15.3711 10 15.3711C10.4846 15.3711 10.8789 14.9768 10.8789 14.4922C10.8789 14.0076 10.4846 13.6133 10 13.6133ZM10 14.7852C9.83844 14.7852 9.70703 14.6538 9.70703 14.4922C9.70703 14.3306 9.83844 14.1992 10 14.1992C10.1616 14.1992 10.293 14.3306 10.293 14.4922C10.293 14.6538 10.1616 14.7852 10 14.7852Z" fill="black"/>
</svg>
