<svg width="19" height="18" viewBox="0 0 19 18" fill="none" xmlns="http://www.w3.org/2000/svg">
<path fill-rule="evenodd" clip-rule="evenodd" d="M9.67114 0C4.70058 0 0.671143 4.02944 0.671143 9C0.671143 13.9706 4.70058 18 9.67114 18C14.6417 18 18.6711 13.9706 18.6711 9C18.6711 4.02944 14.6417 0 9.67114 0ZM9.42048 7.62674L9.40159 7.31532C9.34493 6.50817 9.84226 5.77093 10.6292 5.48493C10.9188 5.38324 11.4098 5.37053 11.7309 5.45951C11.8568 5.49764 12.096 5.62475 12.266 5.73915L12.5744 5.94888L12.9144 5.84084C13.1032 5.78364 13.355 5.6883 13.4684 5.62475C13.5754 5.56755 13.6698 5.53577 13.6698 5.55484C13.6698 5.66288 13.4369 6.0315 13.2417 6.23488C12.9773 6.52088 13.0529 6.5463 13.588 6.35563C13.909 6.24759 13.9153 6.24759 13.8524 6.36834C13.8146 6.4319 13.6195 6.65434 13.4117 6.85772C13.0592 7.20727 13.0403 7.24541 13.0403 7.53776C13.0403 7.989 12.8262 8.92962 12.6122 9.44441C12.2156 10.4105 11.3657 11.4083 10.5159 11.9104C9.31975 12.6158 7.72704 12.7938 6.38614 12.3807C5.93917 12.2408 5.17114 11.8849 5.17114 11.8214C5.17114 11.8023 5.40407 11.7769 5.68736 11.7705C6.27912 11.7578 6.87088 11.5926 7.3745 11.3002L7.71445 11.0968L7.32414 10.9634C6.77015 10.7727 6.27282 10.3342 6.14692 9.92108C6.10914 9.78761 6.12173 9.78126 6.47427 9.78126L6.8394 9.7749L6.53093 9.62872C6.1658 9.44441 5.83215 9.13299 5.66847 8.81522C5.54886 8.58642 5.39777 8.00807 5.44184 7.96358C5.45443 7.94451 5.58663 7.98265 5.73772 8.03349C6.1721 8.19238 6.22875 8.15424 5.97694 7.88731C5.50479 7.40429 5.36 6.68612 5.58663 6.00608L5.69365 5.70101L6.10914 6.11412C6.95901 6.9467 7.95997 7.44243 9.10571 7.5886L9.42048 7.62674Z" fill="black"/>
</svg>
